<svg width="211" height="28" viewBox="0 0 211 28" fill="none" xmlns="http://www.w3.org/2000/svg">
<path d="M12.2761 27.2879C8.41206 27.2879 5.40006 26.2439 3.24006 24.1559C1.08006 22.0679 6.25998e-05 19.1399 6.25998e-05 15.3719V1.51191H8.49606V15.1199C8.49606 17.0399 8.84406 18.4079 9.54006 19.2239C10.2361 20.0159 11.1721 20.4119 12.3481 20.4119C13.5481 20.4119 14.4841 20.0159 15.1561 19.2239C15.8521 18.4079 16.2001 17.0399 16.2001 15.1199V1.51191H24.5521V15.3719C24.5521 19.1399 23.4721 22.0679 21.3121 24.1559C19.1521 26.2439 16.1401 27.2879 12.2761 27.2879ZM28.1945 26.7119V7.01991H35.9345V12.9599L34.6745 11.2679C35.2745 9.73191 36.2345 8.57991 37.5545 7.81191C38.8745 7.04391 40.4585 6.65991 42.3065 6.65991V13.8599C41.9465 13.8119 41.6225 13.7759 41.3345 13.7519C41.0705 13.7279 40.7945 13.7159 40.5065 13.7159C39.2825 13.7159 38.2745 14.0399 37.4825 14.6879C36.7145 15.3119 36.3305 16.4039 36.3305 17.9639V26.7119H28.1945ZM57.7525 27.0719C55.9525 27.0719 54.5005 26.7119 53.3965 25.9919C52.2925 25.2719 51.4885 24.1559 50.9845 22.6439C50.5045 21.1319 50.2645 19.1999 50.2645 16.8479C50.2645 14.5199 50.5285 12.6119 51.0565 11.1239C51.5845 9.61191 52.4005 8.49591 53.5045 7.77591C54.6325 7.03191 56.0485 6.65991 57.7525 6.65991C59.4805 6.65991 61.0645 7.06791 62.5045 7.88391C63.9445 8.69991 65.0965 9.87591 65.9605 11.4119C66.8245 12.9239 67.2565 14.7359 67.2565 16.8479C67.2565 18.9599 66.8245 20.7839 65.9605 22.3199C65.0965 23.8319 63.9445 25.0079 62.5045 25.8479C61.0645 26.6639 59.4805 27.0719 57.7525 27.0719ZM44.6125 26.7119V-8.74996e-05H52.7485V9.64791L52.3885 16.8479L52.3525 24.0479V26.7119H44.6125ZM55.8085 20.7359C56.4085 20.7359 56.9485 20.5919 57.4285 20.3039C57.9085 20.0159 58.2925 19.5839 58.5805 19.0079C58.8685 18.4079 59.0125 17.6879 59.0125 16.8479C59.0125 15.9839 58.8685 15.2759 58.5805 14.7239C58.2925 14.1479 57.9085 13.7159 57.4285 13.4279C56.9485 13.1399 56.4085 12.9959 55.8085 12.9959C55.2085 12.9959 54.6685 13.1399 54.1885 13.4279C53.7085 13.7159 53.3245 14.1479 53.0365 14.7239C52.7485 15.2759 52.6045 15.9839 52.6045 16.8479C52.6045 17.6879 52.7485 18.4079 53.0365 19.0079C53.3245 19.5839 53.7085 20.0159 54.1885 20.3039C54.6685 20.5919 55.2085 20.7359 55.8085 20.7359ZM81.2433 26.7119V23.2199L80.6673 22.2839V15.6599C80.6673 14.6999 80.3673 13.9679 79.7673 13.4639C79.1913 12.9599 78.2433 12.7079 76.9233 12.7079C76.0353 12.7079 75.1353 12.8519 74.2233 13.1399C73.3113 13.4039 72.5313 13.7759 71.8833 14.2559L69.2913 8.89191C70.4433 8.17191 71.8233 7.61991 73.4313 7.23591C75.0393 6.85191 76.6113 6.65991 78.1473 6.65991C81.5313 6.65991 84.1473 7.41591 85.9953 8.92791C87.8673 10.4399 88.8033 12.8399 88.8033 16.1279V26.7119H81.2433ZM75.6633 27.0719C74.0553 27.0719 72.7113 26.7959 71.6313 26.2439C70.5513 25.6919 69.7353 24.9599 69.1833 24.0479C68.6313 23.1119 68.3553 22.0799 68.3553 20.9519C68.3553 19.6799 68.6793 18.5999 69.3273 17.7119C69.9753 16.8239 70.9593 16.1519 72.2793 15.6959C73.6233 15.2399 75.3153 15.0119 77.3553 15.0119H81.4593V18.9359H78.6513C77.7873 18.9359 77.1513 19.0799 76.7433 19.3679C76.3593 19.6319 76.1673 20.0399 76.1673 20.5919C76.1673 21.0479 76.3353 21.4319 76.6713 21.7439C77.0313 22.0319 77.5113 22.1759 78.1113 22.1759C78.6633 22.1759 79.1673 22.0319 79.6233 21.7439C80.1033 21.4319 80.4513 20.9519 80.6673 20.3039L81.7113 22.7159C81.3993 24.1799 80.7393 25.2719 79.7313 25.9919C78.7233 26.7119 77.3673 27.0719 75.6633 27.0719ZM106 6.65991C107.512 6.65991 108.88 6.97191 110.104 7.59591C111.328 8.19591 112.288 9.14391 112.984 10.4399C113.704 11.7359 114.064 13.4159 114.064 15.4799V26.7119H105.928V16.8839C105.928 15.6599 105.712 14.7959 105.28 14.2919C104.848 13.7639 104.26 13.4999 103.516 13.4999C102.964 13.4999 102.448 13.6319 101.968 13.8959C101.512 14.1359 101.14 14.5439 100.852 15.1199C100.588 15.6959 100.456 16.4759 100.456 17.4599V26.7119H92.3195V7.01991H100.06V12.7799L98.5115 11.1239C99.2795 9.63591 100.312 8.51991 101.608 7.77591C102.928 7.03191 104.392 6.65991 106 6.65991Z" fill="url(#paint0_linear_580_5682)"/>
<path d="M126.921 26.9999C125.001 26.9999 123.165 26.7119 121.413 26.1359C119.661 25.5359 118.281 24.7679 117.273 23.8319L118.605 21.0239C119.565 21.8639 120.789 22.5599 122.277 23.1119C123.765 23.6639 125.313 23.9399 126.921 23.9399C128.385 23.9399 129.573 23.7719 130.485 23.4359C131.397 23.0999 132.069 22.6439 132.501 22.0679C132.933 21.4679 133.149 20.7959 133.149 20.0519C133.149 19.1879 132.861 18.4919 132.285 17.9639C131.733 17.4359 131.001 17.0159 130.089 16.7039C129.201 16.3679 128.217 16.0799 127.137 15.8399C126.057 15.5999 124.965 15.3239 123.861 15.0119C122.781 14.6759 121.785 14.2559 120.873 13.7519C119.985 13.2479 119.265 12.5759 118.713 11.7359C118.161 10.8719 117.885 9.76791 117.885 8.42391C117.885 7.12791 118.221 5.93991 118.893 4.85991C119.589 3.75591 120.645 2.87991 122.061 2.23191C123.501 1.55991 125.325 1.22391 127.533 1.22391C128.997 1.22391 130.449 1.41591 131.889 1.79991C133.329 2.18391 134.577 2.73591 135.633 3.45591L134.445 6.33591C133.365 5.61591 132.225 5.09991 131.025 4.78791C129.825 4.45191 128.661 4.28391 127.533 4.28391C126.117 4.28391 124.953 4.46391 124.041 4.82391C123.129 5.18391 122.457 5.66391 122.025 6.26391C121.617 6.86391 121.413 7.53591 121.413 8.27991C121.413 9.16791 121.689 9.87591 122.241 10.4039C122.817 10.9319 123.549 11.3519 124.437 11.6639C125.349 11.9759 126.345 12.2639 127.425 12.5279C128.505 12.7679 129.585 13.0439 130.665 13.3559C131.769 13.6679 132.765 14.0759 133.653 14.5799C134.565 15.0839 135.297 15.7559 135.849 16.5959C136.401 17.4359 136.677 18.5159 136.677 19.8359C136.677 21.1079 136.329 22.2959 135.633 23.3999C134.937 24.4799 133.857 25.3559 132.393 26.0279C130.953 26.6759 129.129 26.9999 126.921 26.9999ZM149.748 26.9279C147.804 26.9279 146.064 26.5079 144.528 25.6679C143.016 24.8279 141.828 23.6759 140.964 22.2119C140.1 20.7479 139.668 19.0679 139.668 17.1719C139.668 15.2759 140.1 13.5959 140.964 12.1319C141.828 10.6679 143.016 9.52791 144.528 8.71191C146.064 7.87191 147.804 7.45191 149.748 7.45191C151.476 7.45191 153.012 7.79991 154.356 8.49591C155.724 9.16791 156.78 10.1759 157.524 11.5199L154.896 13.2119C154.272 12.2759 153.504 11.5919 152.592 11.1599C151.704 10.7039 150.744 10.4759 149.712 10.4759C148.464 10.4759 147.348 10.7519 146.364 11.3039C145.38 11.8559 144.6 12.6359 144.024 13.6439C143.448 14.6279 143.16 15.8039 143.16 17.1719C143.16 18.5399 143.448 19.7279 144.024 20.7359C144.6 21.7439 145.38 22.5239 146.364 23.0759C147.348 23.6279 148.464 23.9039 149.712 23.9039C150.744 23.9039 151.704 23.6879 152.592 23.2559C153.504 22.7999 154.272 22.1039 154.896 21.1679L157.524 22.8239C156.78 24.1439 155.724 25.1639 154.356 25.8839C153.012 26.5799 151.476 26.9279 149.748 26.9279ZM173.843 26.7119V22.6799L173.663 21.9239V15.0479C173.663 13.5839 173.231 12.4559 172.367 11.6639C171.527 10.8479 170.255 10.4399 168.551 10.4399C167.423 10.4399 166.319 10.6319 165.239 11.0159C164.159 11.3759 163.247 11.8679 162.503 12.4919L161.063 9.89991C162.047 9.10791 163.223 8.50791 164.591 8.09991C165.983 7.66791 167.435 7.45191 168.947 7.45191C171.563 7.45191 173.579 8.08791 174.995 9.35991C176.411 10.6319 177.119 12.5759 177.119 15.1919V26.7119H173.843ZM167.579 26.9279C166.163 26.9279 164.915 26.6879 163.835 26.2079C162.779 25.7279 161.963 25.0679 161.387 24.2279C160.811 23.3639 160.523 22.3919 160.523 21.3119C160.523 20.2799 160.763 19.3439 161.243 18.5039C161.747 17.6639 162.551 16.9919 163.655 16.4879C164.783 15.9839 166.295 15.7319 168.191 15.7319H174.239V18.2159H168.335C166.607 18.2159 165.443 18.5039 164.843 19.0799C164.243 19.6559 163.943 20.3519 163.943 21.1679C163.943 22.1039 164.315 22.8599 165.059 23.4359C165.803 23.9879 166.835 24.2639 168.155 24.2639C169.451 24.2639 170.579 23.9759 171.539 23.3999C172.523 22.8239 173.231 21.9839 173.663 20.8799L174.347 23.2559C173.891 24.3839 173.087 25.2839 171.935 25.9559C170.783 26.6039 169.331 26.9279 167.579 26.9279ZM183.514 26.7119V-8.74996e-05H186.97V26.7119H183.514ZM202.065 26.9279C200.025 26.9279 198.225 26.5079 196.665 25.6679C195.129 24.8279 193.929 23.6759 193.065 22.2119C192.225 20.7479 191.805 19.0679 191.805 17.1719C191.805 15.2759 192.213 13.5959 193.029 12.1319C193.869 10.6679 195.009 9.52791 196.449 8.71191C197.913 7.87191 199.557 7.45191 201.381 7.45191C203.229 7.45191 204.861 7.85991 206.277 8.67591C207.693 9.49191 208.797 10.6439 209.589 12.1319C210.405 13.5959 210.813 15.3119 210.813 17.2799C210.813 17.4239 210.801 17.5919 210.777 17.7839C210.777 17.9759 210.765 18.1559 210.741 18.3239H194.505V15.8399H208.941L207.537 16.7039C207.561 15.4799 207.309 14.3879 206.781 13.4279C206.253 12.4679 205.521 11.7239 204.585 11.1959C203.673 10.6439 202.605 10.3679 201.381 10.3679C200.181 10.3679 199.113 10.6439 198.177 11.1959C197.241 11.7239 196.509 12.4799 195.981 13.4639C195.453 14.4239 195.189 15.5279 195.189 16.7759V17.3519C195.189 18.6239 195.477 19.7639 196.053 20.7719C196.653 21.7559 197.481 22.5239 198.537 23.0759C199.593 23.6279 200.805 23.9039 202.173 23.9039C203.301 23.9039 204.321 23.7119 205.233 23.3279C206.169 22.9439 206.985 22.3679 207.681 21.5999L209.589 23.8319C208.725 24.8399 207.645 25.6079 206.349 26.1359C205.077 26.6639 203.649 26.9279 202.065 26.9279Z" fill="#42A8C3"/>
<defs>
<linearGradient id="paint0_linear_580_5682" x1="-1.83594" y1="13.7119" x2="213.164" y2="13.7119" gradientUnits="userSpaceOnUse">
<stop stop-color="#58B7E3"/>
<stop offset="1" stop-color="#61A0F1"/>
</linearGradient>
</defs>
</svg>
